<svg width="20" height="18" viewBox="0 0 20 18" fill="none" xmlns="http://www.w3.org/2000/svg">
<path d="M18.125 9.00398H1.875C1.37772 9.00398 0.900805 9.19664 0.549175 9.53956C0.197544 9.88248 0 10.3476 0 10.8325C0 11.3175 0.197544 11.7826 0.549175 12.1255C0.900805 12.4685 1.37772 12.6611 1.875 12.6611H18.125C18.6223 12.6611 19.0992 12.4685 19.4508 12.1255C19.8025 11.7826 20 11.3175 20 10.8325C20 10.3476 19.8025 9.88248 19.4508 9.53956C19.0992 9.19664 18.6223 9.00398 18.125 9.00398ZM18.75 13.8801H1.25C1.08424 13.8801 0.925268 13.9444 0.808058 14.0587C0.690848 14.173 0.625 14.328 0.625 14.4897V15.0992C0.625 15.7458 0.888392 16.3659 1.35723 16.8232C1.82607 17.2804 2.46196 17.5373 3.125 17.5373H16.875C17.538 17.5373 18.1739 17.2804 18.6428 16.8232C19.1116 16.3659 19.375 15.7458 19.375 15.0992V14.4897C19.375 14.328 19.3092 14.173 19.1919 14.0587C19.0747 13.9444 18.9158 13.8801 18.75 13.8801ZM2.29063 7.78494H17.7094C19.0598 7.78494 19.843 6.11257 19.0695 4.89429C17.5 2.42117 14.0449 0.474513 10 0.470703C5.95547 0.474513 2.5 2.42117 0.930469 4.89391C0.15625 6.11219 0.940234 7.78494 2.29063 7.78494ZM15 3.5183C15.1236 3.5183 15.2445 3.55405 15.3472 3.62103C15.45 3.688 15.5301 3.7832 15.5774 3.89457C15.6247 4.00595 15.6371 4.1285 15.613 4.24674C15.5889 4.36497 15.5294 4.47358 15.4419 4.55882C15.3545 4.64406 15.2432 4.70211 15.1219 4.72563C15.0007 4.74915 14.875 4.73708 14.7608 4.69095C14.6466 4.64481 14.549 4.56669 14.4803 4.46645C14.4117 4.36622 14.375 4.24838 14.375 4.12782C14.375 3.96617 14.4408 3.81114 14.5581 3.69683C14.6753 3.58252 14.8342 3.5183 15 3.5183ZM10 2.29926C10.1236 2.29926 10.2445 2.33501 10.3472 2.40199C10.45 2.46896 10.5301 2.56416 10.5774 2.67553C10.6247 2.78691 10.6371 2.90946 10.613 3.02769C10.5889 3.14593 10.5294 3.25454 10.4419 3.33978C10.3545 3.42502 10.2432 3.48307 10.1219 3.50659C10.0007 3.53011 9.87503 3.51804 9.76082 3.47191C9.64662 3.42577 9.54901 3.34765 9.48033 3.24741C9.41166 3.14718 9.375 3.02934 9.375 2.90878C9.375 2.74713 9.44085 2.59209 9.55806 2.47779C9.67527 2.36348 9.83424 2.29926 10 2.29926ZM5 3.5183C5.12361 3.5183 5.24445 3.55405 5.34723 3.62103C5.45001 3.688 5.53012 3.7832 5.57743 3.89457C5.62473 4.00595 5.63711 4.1285 5.61299 4.24674C5.58888 4.36497 5.52935 4.47358 5.44194 4.55882C5.35453 4.64406 5.24317 4.70211 5.12193 4.72563C5.00069 4.74915 4.87503 4.73708 4.76082 4.69095C4.64662 4.64481 4.54901 4.56669 4.48033 4.46645C4.41166 4.36622 4.375 4.24838 4.375 4.12782C4.375 3.96617 4.44085 3.81114 4.55806 3.69683C4.67527 3.58252 4.83424 3.5183 5 3.5183Z" fill="#48506D"/>
</svg>
