<svg width="22" height="23" viewBox="0 0 22 23" fill="none" xmlns="http://www.w3.org/2000/svg">
<path d="M21.719 13.8899L19.7452 12.7783C19.9444 11.73 19.9444 10.6546 19.7452 9.60628L21.719 8.49471C21.946 8.36819 22.048 8.10611 21.9738 7.86211C21.4595 6.2535 20.5838 4.79852 19.4394 3.58755C19.2633 3.40228 18.9761 3.3571 18.7537 3.48362L16.7799 4.59519C15.9505 3.89933 14.996 3.36162 13.9628 3.00917V0.790552C13.9628 0.537512 13.7821 0.316102 13.5273 0.261879C11.8268 -0.108644 10.0847 -0.0905693 8.46769 0.261879C8.21285 0.316102 8.03215 0.537512 8.03215 0.790552V3.01369C7.00356 3.37065 6.04909 3.90836 5.21509 4.5997L3.24593 3.48814C3.0189 3.36162 2.73626 3.40228 2.5602 3.59206C1.41576 4.79852 0.540066 6.2535 0.0257668 7.86663C-0.0529997 8.11063 0.0535668 8.37271 0.2806 8.49923L2.2544 9.6108C2.05516 10.6591 2.05516 11.7345 2.2544 12.7828L0.2806 13.8944C0.0535668 14.0209 -0.0483664 14.283 0.0257668 14.527C0.540066 16.1356 1.41576 17.5906 2.5602 18.8016C2.73626 18.9868 3.02353 19.032 3.24593 18.9055L5.21973 17.7939C6.04909 18.4898 7.00356 19.0275 8.03679 19.3799V21.6031C8.03679 21.8561 8.21749 22.0775 8.47232 22.1318C10.1728 22.5023 11.9149 22.4842 13.5319 22.1318C13.7867 22.0775 13.9674 21.8561 13.9674 21.6031V19.3799C14.996 19.023 15.9505 18.4853 16.7845 17.7939L18.7583 18.9055C18.9853 19.032 19.268 18.9913 19.444 18.8016C20.5885 17.5951 21.4642 16.1401 21.9785 14.527C22.048 14.2785 21.946 14.0164 21.719 13.8899ZM10.9975 14.8072C8.95419 14.8072 7.29082 13.185 7.29082 11.1923C7.29082 9.19961 8.95419 7.57744 10.9975 7.57744C13.0408 7.57744 14.7041 9.19961 14.7041 11.1923C14.7041 13.185 13.0408 14.8072 10.9975 14.8072Z" fill="#48506D"/>
</svg>
