<svg width="20" height="22" viewBox="0 0 20 22" fill="none" xmlns="http://www.w3.org/2000/svg">
<path d="M5.5 6.43404V4.75786C5.5 4.4813 5.73203 4.25501 6.01562 4.25501H7.73437C8.01797 4.25501 8.25 4.4813 8.25 4.75786V6.43404C8.25 6.71061 8.01797 6.9369 7.73437 6.9369H6.01562C5.73203 6.9369 5.5 6.71061 5.5 6.43404ZM11.5156 6.9369H13.2344C13.518 6.9369 13.75 6.71061 13.75 6.43404V4.75786C13.75 4.4813 13.518 4.25501 13.2344 4.25501H11.5156C11.232 4.25501 11 4.4813 11 4.75786V6.43404C11 6.71061 11.232 6.9369 11.5156 6.9369ZM6.01562 10.9597H7.73437C8.01797 10.9597 8.25 10.7334 8.25 10.4569V8.7807C8.25 8.50413 8.01797 8.27784 7.73437 8.27784H6.01562C5.73203 8.27784 5.5 8.50413 5.5 8.7807V10.4569C5.5 10.7334 5.73203 10.9597 6.01562 10.9597ZM11.5156 10.9597H13.2344C13.518 10.9597 13.75 10.7334 13.75 10.4569V8.7807C13.75 8.50413 13.518 8.27784 13.2344 8.27784H11.5156C11.232 8.27784 11 8.50413 11 8.7807V10.4569C11 10.7334 11.232 10.9597 11.5156 10.9597ZM8.25 14.4797V12.8035C8.25 12.527 8.01797 12.3007 7.73437 12.3007H6.01562C5.73203 12.3007 5.5 12.527 5.5 12.8035V14.4797C5.5 14.7563 5.73203 14.9826 6.01562 14.9826H7.73437C8.01797 14.9826 8.25 14.7563 8.25 14.4797ZM11.5156 14.9826H13.2344C13.518 14.9826 13.75 14.7563 13.75 14.4797V12.8035C13.75 12.527 13.518 12.3007 13.2344 12.3007H11.5156C11.232 12.3007 11 12.527 11 12.8035V14.4797C11 14.7563 11.232 14.9826 11.5156 14.9826ZM19.25 20.1787V21.6873H0V20.1787C0 19.9022 0.232031 19.6759 0.515625 19.6759H1.35352V1.23789C1.35352 0.680556 1.81328 0.232178 2.38477 0.232178H16.8652C17.4367 0.232178 17.8965 0.680556 17.8965 1.23789V19.6759H18.7344C19.018 19.6759 19.25 19.9022 19.25 20.1787ZM3.41602 19.634H8.25V16.8264C8.25 16.5498 8.48203 16.3235 8.76562 16.3235H10.4844C10.768 16.3235 11 16.5498 11 16.8264V19.634H15.834V2.2855L3.4375 2.24359L3.41602 19.634Z" fill="#48506D"/>
</svg>
