<svg width="26" height="21" viewBox="0 0 26 21" fill="none" xmlns="http://www.w3.org/2000/svg">
<path d="M9.37646 10.4813C10.3654 10.4813 11.3321 10.1953 12.1543 9.65955C12.9766 9.12375 13.6174 8.36219 13.9959 7.47119C14.3743 6.58019 14.4733 5.59976 14.2804 4.65388C14.0875 3.70799 13.6113 2.83914 12.912 2.1572C12.2127 1.47526 11.3218 1.01085 10.3519 0.8227C9.38201 0.634552 8.37668 0.731117 7.46305 1.10018C6.54942 1.46925 5.76852 2.09424 5.21912 2.89612C4.66971 3.698 4.37646 4.64075 4.37646 5.60517C4.37646 6.89841 4.90325 8.13868 5.84093 9.05313C6.77861 9.96759 8.05038 10.4813 9.37646 10.4813ZM13.1265 12.9194C13.1293 12.5122 13.2382 12.1124 13.4429 11.7575C13.2554 11.7385 13.0718 11.7004 12.8765 11.7004H12.2241C11.3312 12.1019 10.3597 12.3099 9.37646 12.3099C8.39323 12.3099 7.42168 12.1019 6.52881 11.7004H5.87646C4.48417 11.7007 3.149 12.2402 2.1645 13.2003C1.18 14.1604 0.626776 15.4625 0.626465 16.8203L0.626465 18.4051C0.626465 18.8901 0.824009 19.3552 1.17564 19.6981C1.52727 20.041 2.00418 20.2336 2.50146 20.2336H13.4741C13.2495 19.8645 13.1295 19.4438 13.1265 19.0146V12.9194ZM24.3765 11.7004H23.1265V8.65277C23.1265 7.84449 22.7972 7.06932 22.2112 6.49779C21.6251 5.92625 20.8303 5.60517 20.0015 5.60517C19.1727 5.60517 18.3778 5.92625 17.7918 6.49779C17.2057 7.06932 16.8765 7.84449 16.8765 8.65277V11.7004H15.6265C15.2949 11.7004 14.977 11.8288 14.7426 12.0574C14.5082 12.286 14.3765 12.5961 14.3765 12.9194V19.0146C14.3765 19.3379 14.5082 19.648 14.7426 19.8766C14.977 20.1052 15.2949 20.2336 15.6265 20.2336H24.3765C24.708 20.2336 25.0259 20.1052 25.2603 19.8766C25.4948 19.648 25.6265 19.3379 25.6265 19.0146V12.9194C25.6265 12.5961 25.4948 12.286 25.2603 12.0574C25.0259 11.8288 24.708 11.7004 24.3765 11.7004ZM20.0015 17.186C19.7542 17.186 19.5126 17.1146 19.307 16.9806C19.1014 16.8467 18.9412 16.6563 18.8466 16.4335C18.752 16.2108 18.7273 15.9657 18.7755 15.7292C18.8237 15.4927 18.9428 15.2755 19.1176 15.105C19.2924 14.9345 19.5151 14.8184 19.7576 14.7714C20.0001 14.7244 20.2514 14.7485 20.4798 14.8408C20.7082 14.933 20.9035 15.0893 21.0408 15.2897C21.1782 15.4902 21.2515 15.7259 21.2515 15.967C21.2515 16.2903 21.1198 16.6004 20.8853 16.829C20.6509 17.0576 20.333 17.186 20.0015 17.186ZM21.2515 11.7004H18.7515V8.65277C18.7515 8.32946 18.8832 8.01939 19.1176 7.79078C19.352 7.56216 19.6699 7.43373 20.0015 7.43373C20.333 7.43373 20.6509 7.56216 20.8853 7.79078C21.1198 8.01939 21.2515 8.32946 21.2515 8.65277V11.7004Z" fill="#48506D"/>
</svg>
