<svg width="20" height="22" viewBox="0 0 20 22" fill="none" xmlns="http://www.w3.org/2000/svg">
<path d="M13.475 12.8349C12.2418 12.8349 11.6488 13.5054 9.625 13.5054C7.60117 13.5054 7.0125 12.8349 5.775 12.8349C2.58672 12.8349 0 15.3576 0 18.4669V19.5396C0 20.6501 0.923828 21.5511 2.0625 21.5511H17.1875C18.3262 21.5511 19.25 20.6501 19.25 19.5396V18.4669C19.25 15.3576 16.6633 12.8349 13.475 12.8349ZM17.1875 19.5396H2.0625V18.4669C2.0625 16.4722 3.72969 14.8463 5.775 14.8463C6.40234 14.8463 7.4207 15.5168 9.625 15.5168C11.8465 15.5168 12.8434 14.8463 13.475 14.8463C15.5203 14.8463 17.1875 16.4722 17.1875 18.4669V19.5396ZM9.625 12.1644C13.041 12.1644 15.8125 9.46161 15.8125 6.1302C15.8125 2.79879 13.041 0.0959473 9.625 0.0959473C6.20898 0.0959473 3.4375 2.79879 3.4375 6.1302C3.4375 9.46161 6.20898 12.1644 9.625 12.1644ZM9.625 2.10736C11.898 2.10736 13.75 3.91345 13.75 6.1302C13.75 8.34694 11.898 10.153 9.625 10.153C7.35195 10.153 5.5 8.34694 5.5 6.1302C5.5 3.91345 7.35195 2.10736 9.625 2.10736Z" fill="#48506D"/>
</svg>
