<svg width="19" height="29" viewBox="0 0 19 29" fill="none" xmlns="http://www.w3.org/2000/svg">
<path d="M11.8603 5.58481C13.33 5.58481 14.5224 4.42197 14.5224 2.9887C14.5224 1.55542 13.33 0.392578 11.8603 0.392578C10.3907 0.392578 9.19829 1.55542 9.19829 2.9887C9.19829 4.42197 10.3907 5.58481 11.8603 5.58481ZM17.1012 13.649L15.809 13.0108L15.2711 11.4207C14.4558 9.00844 12.182 7.32097 9.60314 7.31556C7.6066 7.31015 6.50296 7.86182 4.42878 8.67852C3.23086 9.14907 2.24923 10.0415 1.67245 11.1773L1.30087 11.9128C0.868287 12.7674 1.21768 13.8059 2.08839 14.2331C2.95356 14.6604 4.00729 14.3143 4.44542 13.4597L4.817 12.7241C5.0111 12.3455 5.33277 12.0481 5.73208 11.8912L7.21839 11.3071L6.3754 14.5901C6.08702 15.7151 6.39759 16.9104 7.20175 17.7703L10.5238 21.3075C10.9231 21.7348 11.2059 22.2486 11.3501 22.8057L12.365 26.7702C12.6035 27.6951 13.5685 28.263 14.5168 28.0304C15.4652 27.7978 16.0475 26.8567 15.809 25.9319L14.5778 21.1182C14.4337 20.5612 14.1508 20.0419 13.7515 19.6201L11.2281 16.932L12.182 13.2163L12.487 14.1087C12.781 14.9795 13.4132 15.6989 14.2451 16.1099L15.5373 16.7481C16.4025 17.1754 17.4562 16.8292 17.8943 15.9747C18.3214 15.1255 17.972 14.0763 17.1012 13.649ZM4.4066 21.2589C4.22913 21.697 3.96292 22.0918 3.61907 22.4217L0.846104 25.1314C0.152861 25.8075 0.152861 26.9054 0.846104 27.5815C1.53935 28.2576 2.65963 28.2576 3.35287 27.5815L6.64716 24.3688C6.98546 24.0389 7.25166 23.6441 7.43468 23.206L8.18338 21.3779C5.11648 18.1165 6.0371 19.1171 5.55461 18.4735L4.4066 21.2589Z" fill="#48506D"/>
</svg>
